<svg width="101" height="95" viewBox="0 0 101 95" fill="none" xmlns="http://www.w3.org/2000/svg">
<mask id="mask0_90_2" style="mask-type:alpha" maskUnits="userSpaceOnUse" x="0" y="0" width="101" height="95">
<rect width="101" height="95" fill="#D9D9D9"/>
</mask>
<g mask="url(#mask0_90_2)">
<path d="M24.6188 67.6875C28.1959 65.1146 32.1938 63.0859 36.6125 61.6016C41.0313 60.1172 45.6604 59.375 50.5 59.375C55.3396 59.375 59.9688 60.1172 64.3875 61.6016C68.8063 63.0859 72.8042 65.1146 76.3813 67.6875C78.8361 64.9826 80.7474 61.9149 82.1151 58.4844C83.4828 55.0538 84.1667 51.3923 84.1667 47.5C84.1667 38.7257 80.8877 31.2543 74.3297 25.0859C67.7717 18.9175 59.8285 15.8333 50.5 15.8333C41.1715 15.8333 33.2283 18.9175 26.6703 25.0859C20.1123 31.2543 16.8334 38.7257 16.8334 47.5C16.8334 51.3923 17.5172 55.0538 18.8849 58.4844C20.2526 61.9149 22.1639 64.9826 24.6188 67.6875ZM50.5 51.4583C46.3618 51.4583 42.8724 50.1224 40.0318 47.4505C37.1912 44.7786 35.7709 41.4965 35.7709 37.6042C35.7709 33.7118 37.1912 30.4297 40.0318 27.7578C42.8724 25.0859 46.3618 23.75 50.5 23.75C54.6382 23.75 58.1276 25.0859 60.9682 27.7578C63.8089 30.4297 65.2292 33.7118 65.2292 37.6042C65.2292 41.4965 63.8089 44.7786 60.9682 47.4505C58.1276 50.1224 54.6382 51.4583 50.5 51.4583ZM50.5 87.0833C44.6785 87.0833 39.2077 86.0443 34.0875 83.9661C28.9674 81.888 24.5136 79.0677 20.7261 75.5052C16.9386 71.9427 13.9401 67.7535 11.7307 62.9375C9.52137 58.1215 8.41669 52.9757 8.41669 47.5C8.41669 42.0243 9.52137 36.8785 11.7307 32.0625C13.9401 27.2465 16.9386 23.0573 20.7261 19.4948C24.5136 15.9323 28.9674 13.112 34.0875 11.0338C39.2077 8.95572 44.6785 7.91666 50.5 7.91666C56.3215 7.91666 61.7924 8.95572 66.9125 11.0338C72.0327 13.112 76.4865 15.9323 80.274 19.4948C84.0615 23.0573 87.0599 27.2465 89.2693 32.0625C91.4787 36.8785 92.5833 42.0243 92.5833 47.5C92.5833 52.9757 91.4787 58.1215 89.2693 62.9375C87.0599 67.7535 84.0615 71.9427 80.274 75.5052C76.4865 79.0677 72.0327 81.888 66.9125 83.9661C61.7924 86.0443 56.3215 87.0833 50.5 87.0833Z" fill="#4340D2"/>
</g>
</svg>
